<?xml version="1.0" encoding="UTF-8" standalone="no"?>
<!DOCTYPE svg PUBLIC "-//W3C//DTD SVG 1.1//EN" "http://www.w3.org/Graphics/SVG/1.1/DTD/svg11.dtd">
<svg width="100%" height="100%" viewBox="0 0 683 500" version="1.1" xmlns="http://www.w3.org/2000/svg" xmlns:xlink="http://www.w3.org/1999/xlink" xml:space="preserve" xmlns:serif="http://www.serif.com/" style="fill-rule:evenodd;clip-rule:evenodd;stroke-linejoin:round;stroke-miterlimit:2;">
    <g transform="matrix(1,0,0,1,507,193)">
        <path d="M0,0L0,183C-11.38,183.99 -11.38,183.99 -23,185C-70.36,190.1 -115.95,201.64 -158.2,224.16C-160,225 -160,225 -162,225C-162.01,224.15 -162.01,223.31 -162.02,222.44C-162.08,214.48 -162.15,206.52 -162.24,198.56C-162.28,194.46 -162.32,190.37 -162.35,186.28C-162.37,182.33 -162.41,178.38 -162.46,174.43C-162.48,172.93 -162.49,171.42 -162.5,169.91C-162.51,167.8 -162.54,165.69 -162.57,163.58C-162.58,162.38 -162.59,161.18 -162.6,159.94C-162.76,157.01 -162.76,157.01 -164.41,155.12C-166.39,153.73 -167.59,153.57 -170,153.56C-170.68,153.54 -171.36,153.52 -172.06,153.5C-174.13,153.86 -174.13,153.86 -175.59,155.62C-177.44,158.75 -177.4,160.97 -177.43,164.6C-177.44,165.26 -177.45,165.91 -177.46,166.59C-177.49,168.74 -177.5,170.89 -177.51,173.05C-177.53,174.54 -177.55,176.04 -177.57,177.54C-177.61,181.47 -177.64,185.4 -177.67,189.33C-177.7,193.35 -177.75,197.36 -177.79,201.38C-177.88,209.25 -177.94,217.13 -178,225C-182.69,223.49 -186.95,221.59 -191.31,219.31C-201.59,214.06 -212.23,209.75 -223.04,205.73C-224.91,205.03 -226.76,204.32 -228.62,203.61C-259.91,191.83 -294.39,186.87 -327.61,184.65C-329.19,184.54 -329.19,184.54 -330.79,184.43C-331.73,184.37 -332.66,184.31 -333.62,184.25C-336,184 -336,184 -339,183L-339,1C-326.6,1 -326.6,1 -321.64,1.85C-320.52,2.04 -319.4,2.23 -318.25,2.42C-316.48,2.74 -316.48,2.74 -314.69,3.06C-313.44,3.28 -312.19,3.5 -310.9,3.73C-289.96,7.54 -269.26,12.46 -249,19C-247.86,19.36 -246.72,19.72 -245.54,20.09C-235.27,23.39 -225.48,27.77 -215.62,32.12C-214.86,32.46 -214.1,32.8 -213.32,33.15C-212.59,33.47 -211.86,33.8 -211.1,34.13C-210.13,34.56 -210.13,34.56 -209.14,35C-206.4,36.28 -203.7,37.65 -201,39C-200.67,72.66 -200.34,106.32 -200,141C-195.33,139.83 -194.78,138.9 -191.94,135.19C-188.54,130.88 -185.05,126.77 -181.31,122.75C-177.44,118.58 -173.66,114.36 -170,110C-166.37,113.6 -162.8,117.26 -159.31,121C-158.79,121.55 -158.28,122.11 -157.74,122.68C-153.57,127.21 -149.82,131.98 -146.3,137.04C-145.06,138.81 -145.06,138.81 -143,141L-139,141C-138.67,107.01 -138.34,73.02 -138,38C-112.16,26.63 -87.1,17.23 -60,10C-58.76,9.67 -58.76,9.67 -57.5,9.33C-43.27,5.6 -28.54,2.95 -13.91,1.45C-1.3,0 -1.3,0 0,0Z" style="fill:rgb(253,253,253);fill-rule:nonzero;"/>
    </g>
    <g transform="matrix(1,0,0,1,519.907,177.47)">
        <path d="M0,0C2.92,3.53 2.72,6.65 2.58,11.01C2.57,11.83 2.57,12.65 2.56,13.49C2.53,16.09 2.47,18.68 2.41,21.28C2.38,23.04 2.36,24.81 2.34,26.57C2.28,30.89 2.2,35.21 2.09,39.53C2.8,39.51 3.51,39.49 4.23,39.47C7.44,39.38 10.64,39.33 13.84,39.28C15.51,39.23 15.51,39.23 17.21,39.18C18.82,39.16 18.82,39.16 20.45,39.14C21.44,39.12 22.42,39.1 23.44,39.08C26.98,39.68 27.93,40.67 30.09,43.53C30.49,46.32 30.64,48.71 30.61,51.49C30.61,52.3 30.62,53.11 30.63,53.94C30.65,56.66 30.64,59.37 30.63,62.08C30.63,64.02 30.64,65.97 30.65,67.91C30.68,73.19 30.67,78.47 30.66,83.75C30.66,88.16 30.67,92.57 30.67,96.97C30.69,107.37 30.69,117.76 30.67,128.15C30.65,138.88 30.67,149.61 30.7,160.34C30.73,169.54 30.73,178.75 30.73,187.95C30.72,193.45 30.72,198.95 30.74,204.46C30.76,209.63 30.76,214.8 30.73,219.97C30.73,221.87 30.73,223.77 30.74,225.67C30.76,228.26 30.74,230.85 30.72,233.44C30.73,234.19 30.74,234.95 30.76,235.72C30.69,239.56 30.2,241.39 27.88,244.5C24.85,246.7 23.59,247.16 19.91,247.16C18.89,247.17 17.87,247.18 16.82,247.19C15.7,247.18 14.59,247.17 13.45,247.16C12.27,247.17 11.09,247.17 9.87,247.18C6.64,247.2 3.4,247.19 0.17,247.17C-3.24,247.16 -6.65,247.18 -10.07,247.2C-16.55,247.23 -23.04,247.23 -29.53,247.22C-41.06,247.21 -52.59,247.24 -64.13,247.28C-68.8,247.29 -73.47,247.29 -78.14,247.28C-111.58,247.29 -143.74,251.14 -175.87,260.69C-183.55,262.82 -189.49,261.16 -196.91,258.74C-222.21,250.81 -250.29,247.36 -276.73,247.4L-280.47,247.4C-283.12,247.39 -285.78,247.39 -288.44,247.39C-292.64,247.39 -296.84,247.38 -301.05,247.36C-301.76,247.36 -302.47,247.36 -303.2,247.35C-304.66,247.35 -306.11,247.34 -307.57,247.34C-317.34,247.3 -327.11,247.28 -336.87,247.28C-343.49,247.28 -350.1,247.27 -356.72,247.23C-360.21,247.21 -363.7,247.2 -367.19,247.21C-371.08,247.23 -374.97,247.2 -378.86,247.17C-380.01,247.18 -381.16,247.19 -382.35,247.2C-383.94,247.18 -383.94,247.18 -385.56,247.16L-388.34,247.16C-392.14,246.23 -393.59,244.65 -395.91,241.53C-396.4,238.63 -396.58,236.33 -396.54,233.44C-396.54,232.63 -396.55,231.82 -396.56,230.98C-396.57,228.27 -396.56,225.56 -396.54,222.85C-396.54,220.91 -396.55,218.96 -396.56,217.02C-396.58,211.73 -396.57,206.45 -396.55,201.17C-396.53,195.65 -396.54,190.13 -396.54,184.6C-396.55,175.33 -396.53,166.05 -396.5,156.78C-396.47,146.05 -396.47,135.32 -396.49,124.59C-396.5,114.28 -396.5,103.96 -396.48,93.65C-396.47,89.25 -396.48,84.86 -396.48,80.47C-396.49,75.3 -396.48,70.13 -396.45,64.96C-396.44,63.06 -396.44,61.16 -396.45,59.26C-396.46,56.67 -396.44,54.08 -396.42,51.49C-396.43,50.36 -396.43,50.36 -396.45,49.21C-396.39,45.74 -396.16,43.86 -394.04,41.06C-391.28,39.08 -389.64,39.07 -386.27,39.14C-385.2,39.15 -384.13,39.17 -383.02,39.18C-381.91,39.21 -380.8,39.25 -379.66,39.28C-377.97,39.31 -377.97,39.31 -376.24,39.33C-373.46,39.38 -370.69,39.45 -367.91,39.53C-367.92,38.43 -367.94,37.32 -367.95,36.18C-368.01,32.08 -368.04,27.99 -368.07,23.89C-368.09,22.11 -368.11,20.34 -368.13,18.56C-368.17,16.02 -368.19,13.47 -368.2,10.92C-368.22,10.12 -368.23,9.33 -368.25,8.51C-368.25,3.04 -368.25,3.04 -366.57,0.53C-359.02,-4.02 -344.21,0.18 -335.91,1.53C-334.89,1.69 -333.88,1.85 -332.83,2.02C-309.42,5.77 -286.37,10.35 -263.86,17.89C-261.19,18.77 -258.48,19.51 -255.78,20.28C-233.21,27.21 -210.67,37.16 -190.35,49.16C-189.57,49.62 -188.78,50.07 -187.97,50.54C-187.28,50.95 -186.59,51.36 -185.88,51.78C-183.38,52.73 -182.39,52.48 -179.91,51.53C-178.25,50.75 -176.62,49.92 -175.01,49.05C-174.07,48.55 -173.12,48.05 -172.14,47.53C-171.14,47 -170.13,46.46 -169.09,45.91C-137.33,29.19 -104.75,16.71 -69.63,9.2C-66.89,8.58 -66.89,8.58 -64.28,7.57C-59.4,6.07 -54.45,5.37 -49.41,4.58C-48.3,4.41 -47.2,4.24 -46.06,4.06C-43.72,3.69 -41.39,3.32 -39.05,2.96C-35.48,2.41 -31.92,1.84 -28.36,1.28C-26.08,0.92 -23.81,0.56 -21.54,0.21C-19.94,-0.04 -19.94,-0.04 -18.32,-0.3C-4.72,-2.39 -4.72,-2.39 0,0ZM-22.91,16.53C-24.63,16.84 -26.36,17.11 -28.09,17.36C-29.15,17.52 -30.21,17.68 -31.31,17.84C-32.46,18 -33.6,18.17 -34.78,18.34C-58.49,21.92 -81.17,27.37 -104.03,34.59C-105.54,35.07 -105.54,35.07 -107.08,35.55C-122.14,40.4 -136.4,47.22 -150.91,53.53C-151.24,87.52 -151.57,121.51 -151.91,156.53C-155.91,156.53 -155.91,156.53 -157.63,154.83C-158.21,154.03 -158.8,153.23 -159.41,152.41C-162.82,147.92 -166.35,143.6 -170.03,139.34C-170.52,138.77 -171.01,138.2 -171.52,137.62C-172.48,136.5 -173.45,135.38 -174.42,134.26C-176.92,131.36 -179.41,128.44 -181.91,125.53C-186.89,129.42 -190.83,133.72 -194.91,138.53C-195.91,139.69 -196.91,140.86 -197.91,142.02C-199,143.27 -200.08,144.53 -201.16,145.78C-201.68,146.38 -202.2,146.99 -202.73,147.61C-203.23,148.18 -203.72,148.76 -204.24,149.36C-204.7,149.91 -205.17,150.45 -205.66,151.02C-207.03,152.64 -207.03,152.64 -208.58,154.95C-209.02,155.47 -209.46,155.99 -209.91,156.53L-212.91,156.53C-213.24,122.87 -213.57,89.21 -213.91,54.53C-225.62,48.98 -236.8,43.85 -248.91,39.53C-250.23,39.03 -251.55,38.53 -252.87,38.02C-256.82,36.54 -260.81,35.26 -264.84,34.03C-266.17,33.62 -267.49,33.22 -268.81,32.81C-269.48,32.6 -270.16,32.4 -270.85,32.18C-272.21,31.75 -273.56,31.3 -274.9,30.83C-281.96,28.35 -289.19,26.7 -296.47,25.03C-297.14,24.88 -297.8,24.72 -298.49,24.56C-308.26,22.31 -318.02,20.18 -327.91,18.53C-329.05,18.33 -330.19,18.12 -331.36,17.91C-338.5,16.7 -344.42,16.53 -351.91,16.53L-351.91,198.53C-348.55,199.65 -345.68,199.84 -342.15,200.07C-340.74,200.17 -339.33,200.28 -337.92,200.38C-337.18,200.43 -336.43,200.49 -335.66,200.54C-322.22,201.55 -308.99,203.08 -295.72,205.47C-294.69,205.65 -294.69,205.65 -293.65,205.84C-283.62,207.63 -273.76,209.95 -263.91,212.53C-262.9,212.8 -261.89,213.06 -260.84,213.33C-254.48,215.04 -248.19,216.92 -241.91,218.91C-241,219.18 -240.09,219.46 -239.16,219.75C-232.48,221.86 -226.24,224.55 -219.91,227.53C-218,228.39 -216.1,229.25 -214.2,230.1C-212.31,230.95 -210.42,231.8 -208.53,232.66C-207.57,233.08 -206.62,233.51 -205.63,233.96C-204.7,234.38 -203.78,234.79 -202.82,235.23C-202,235.6 -201.17,235.97 -200.32,236.35C-197.91,237.53 -197.91,237.53 -195.22,239.17C-193.07,240.7 -193.07,240.7 -190.91,240.53C-190.9,239.7 -190.9,238.87 -190.89,238.01C-190.83,230.19 -190.76,222.36 -190.67,214.53C-190.63,210.51 -190.59,206.48 -190.56,202.46C-190.53,198.57 -190.49,194.69 -190.44,190.81C-190.43,189.32 -190.42,187.84 -190.41,186.36C-190.4,184.29 -190.37,182.21 -190.34,180.13C-190.32,178.36 -190.32,178.36 -190.31,176.55C-189.87,173.27 -189.21,171.87 -186.91,169.53C-184.97,169.03 -184.97,169.03 -182.91,169.09C-181.89,169.09 -181.89,169.09 -180.84,169.1C-178.25,169.68 -177.5,170.39 -175.91,172.53C-175.51,175.47 -175.51,175.47 -175.47,179.11C-175.46,180.11 -175.46,180.11 -175.44,181.12C-175.41,183.32 -175.4,185.51 -175.4,187.7C-175.38,189.22 -175.36,190.74 -175.34,192.26C-175.29,196.26 -175.26,200.26 -175.24,204.26C-175.21,208.34 -175.16,212.42 -175.12,216.5C-175.03,224.51 -174.96,232.52 -174.91,240.53C-171.03,239.27 -167.44,237.91 -163.8,236.06C-115.8,212.1 -65.77,203.34 -12.91,198.53L-12.91,15.53C-20.09,14.93 -20.09,14.93 -22.91,16.53Z" style="fill:rgb(81,84,87);fill-rule:nonzero;"/>
    </g>
    <g transform="matrix(1,0,0,1,369,232)">
        <path d="M0,0L0,102C-2.48,102.5 -2.48,102.5 -5,103C-5.77,102.05 -5.77,102.05 -6.55,101.09C-11.53,94.96 -16.6,88.93 -21.75,82.95C-24.87,79.33 -27.95,75.68 -31,72C-35.73,75.44 -39.24,79.57 -43,84C-43.99,85.15 -44.98,86.31 -45.98,87.46C-52.6,95.14 -52.6,95.14 -59,103C-60.32,102.67 -61.64,102.34 -63,102L-63,1C-59.03,1.79 -57.13,2.27 -53.82,4.14C-52.67,4.79 -52.67,4.79 -51.5,5.45C-50.72,5.9 -49.93,6.35 -49.12,6.81C-48.35,7.25 -47.57,7.69 -46.77,8.14C-46,8.58 -45.24,9.01 -44.45,9.46C-43.32,10.09 -43.32,10.09 -42.17,10.74C-40.77,11.55 -39.4,12.38 -38.05,13.25C-35.51,14.85 -33.61,15.99 -30.57,16.05C-26.75,14.49 -23.32,12.41 -19.81,10.25C-2.8,0 -2.8,0 0,0Z" style="fill:rgb(255,99,92);fill-rule:nonzero;"/>
    </g>
    <g transform="matrix(1,0,0,1,140,232)">
        <path d="M0,0L12,0C12.01,1.94 12.01,3.87 12.02,5.86C12.07,24.07 12.15,42.27 12.24,60.47C12.28,69.83 12.32,79.19 12.35,88.55C12.37,96.71 12.4,104.86 12.45,113.02C12.47,117.34 12.49,121.66 12.5,125.98C12.5,130.04 12.52,134.1 12.55,138.17C12.56,139.66 12.57,141.16 12.57,142.65C12.56,144.68 12.58,146.72 12.6,148.75C12.61,150.47 12.61,150.47 12.62,152.21C12.78,154.99 12.78,154.99 14.28,156.85C17.38,158.93 21.15,158.79 24.78,159.06C26.1,159.18 26.1,159.18 27.45,159.3C30.28,159.54 33.11,159.77 35.94,160C39.61,160.3 43.29,160.62 46.96,160.94C48.33,161.06 48.33,161.06 49.73,161.18C59.22,162.04 68.6,163.48 78,165C79.42,165.22 80.83,165.45 82.25,165.67C91.78,167.2 101.17,169.33 110.56,171.5C111.55,171.72 111.55,171.72 112.55,171.95C119.56,173.56 126.34,175.25 133,178C130.24,179.03 128.56,178.94 125.59,178.54C120.07,177.8 114.55,177.82 108.98,177.79C107.78,177.78 106.58,177.77 105.35,177.76C101.48,177.73 97.62,177.71 93.75,177.68C91.36,177.67 88.96,177.65 86.57,177.63C77.71,177.56 68.86,177.5 60,177.44C40.2,177.29 20.4,177.15 0,177L0,0Z" style="fill:rgb(191,192,193);fill-rule:nonzero;"/>
    </g>
    <g transform="matrix(1,0,0,1,522,233)">
        <path d="M0,0L12,0L12,175C-43.31,175.37 -43.31,175.37 -60.67,175.48C-65.88,175.52 -65.88,175.52 -71.09,175.56C-73.38,175.58 -75.67,175.59 -77.96,175.6C-92.1,175.67 -105.97,176.16 -120,178C-117.3,175.3 -114.27,174.7 -110.69,173.69C-109.94,173.47 -109.2,173.26 -108.43,173.04C-102.38,171.33 -96.3,169.78 -90.19,168.31C-88.94,168.01 -88.94,168.01 -87.66,167.7C-76.52,165.08 -65.21,163.54 -53.88,162.06C-53.23,161.98 -52.58,161.89 -51.91,161.8C-43.78,160.74 -35.65,159.84 -27.49,159.14C-26.71,159.08 -25.93,159.01 -25.12,158.94C-21.31,158.62 -17.5,158.32 -13.69,158.04C-12.31,157.93 -10.93,157.82 -9.54,157.71C-8.33,157.62 -7.11,157.53 -5.86,157.44C-2.87,157.27 -2.87,157.27 -1,155C-0.68,152.21 -0.68,152.21 -0.72,148.88C-0.71,147.57 -0.7,146.26 -0.69,144.91C-0.69,143.46 -0.68,142 -0.68,140.54C-0.67,139.02 -0.66,137.49 -0.65,135.96C-0.62,131.81 -0.61,127.65 -0.6,123.5C-0.58,119.16 -0.55,114.82 -0.53,110.48C-0.48,102.26 -0.44,94.04 -0.41,85.82C-0.37,76.47 -0.32,67.11 -0.27,57.75C-0.17,38.5 -0.08,19.25 0,0Z" style="fill:rgb(195,195,196);fill-rule:nonzero;"/>
    </g>
    <g transform="matrix(1,0,0,1,337,39.5625)">
        <path d="M0,0L2,0C4.86,0.62 5.98,1.27 8,3.44C8.63,6.46 8.55,9.45 8.52,12.53C8.52,13.46 8.53,14.39 8.54,15.35C8.56,18.43 8.54,21.51 8.53,24.59C8.53,26.73 8.54,28.87 8.54,31.01C8.55,35.49 8.54,39.97 8.52,44.46C8.5,50.21 8.51,55.96 8.54,61.71C8.55,66.13 8.55,70.55 8.54,74.97C8.53,77.09 8.54,79.21 8.55,81.33C8.56,84.29 8.54,87.25 8.52,90.22C8.53,91.1 8.53,91.98 8.54,92.88C8.46,98.83 8.46,98.83 6.09,101.98C3.84,103.55 2.72,104.01 0,104C-0.99,104.03 -0.99,104.03 -2,104.07C-5.24,103.05 -6.21,101.28 -8,98.44C-8.58,95.39 -8.55,92.4 -8.52,89.3C-8.52,88.39 -8.53,87.48 -8.54,86.54C-8.56,83.54 -8.54,80.53 -8.53,77.53C-8.53,75.44 -8.54,73.35 -8.54,71.26C-8.55,66.88 -8.54,62.5 -8.52,58.12C-8.5,52.5 -8.51,46.89 -8.54,41.28C-8.55,36.96 -8.55,32.64 -8.54,28.33C-8.53,26.26 -8.54,24.19 -8.55,22.12C-8.56,19.22 -8.54,16.33 -8.52,13.44C-8.53,12.58 -8.53,11.73 -8.54,10.85C-8.46,5.05 -8.46,5.05 -6.09,1.91C-3.81,0.31 -2.75,-0.08 0,0Z" style="fill:rgb(255,99,92);fill-rule:nonzero;"/>
    </g>
    <g transform="matrix(1,0,0,1,211.312,83.75)">
        <path d="M0,0C9.4,3.19 16.66,13.08 23.59,20.02C24.72,21.15 25.85,22.28 26.98,23.41C29.33,25.75 31.68,28.11 34.03,30.46C37.04,33.48 40.05,36.49 43.07,39.5C45.4,41.82 47.72,44.15 50.04,46.47C51.15,47.58 52.27,48.7 53.38,49.81C54.93,51.35 56.47,52.9 58.02,54.45C58.9,55.33 59.78,56.21 60.68,57.12C63.25,59.85 63.64,60.79 64.06,64.56C63.69,68.25 63.69,68.25 61.62,71.19C57.89,73.81 56.19,73.81 51.69,73.25C49.29,71.55 47.51,70.05 45.49,67.98C44.92,67.42 44.34,66.85 43.75,66.28C41.86,64.42 40,62.54 38.13,60.66C36.82,59.36 35.51,58.06 34.2,56.76C31.46,54.03 28.73,51.29 26.01,48.54C22.52,45.02 19.01,41.54 15.48,38.07C12.77,35.39 10.08,32.69 7.39,29.98C6.1,28.69 4.81,27.41 3.51,26.13C1.69,24.33 -0.11,22.51 -1.89,20.69C-2.43,20.17 -2.97,19.65 -3.52,19.11C-7.06,15.42 -8.02,12.37 -8.48,7.3C-8.31,5.25 -8.31,5.25 -6.31,2.12C-3.31,0.25 -3.31,0.25 0,0Z" style="fill:rgb(255,99,92);fill-rule:nonzero;"/>
    </g>
    <g transform="matrix(1,0,0,1,468,85)">
        <path d="M0,0C2.62,2.06 2.62,2.06 4,5C3.87,11.1 1.74,14.12 -2.5,18.19C-3.07,18.77 -3.64,19.34 -4.23,19.94C-6.12,21.82 -8.03,23.69 -9.93,25.55C-11.25,26.86 -12.57,28.17 -13.88,29.49C-17.34,32.93 -20.82,36.35 -24.3,39.77C-27.15,42.57 -29.98,45.39 -32.81,48.2C-36.18,51.55 -39.56,54.9 -42.93,58.24C-43.9,59.2 -43.9,59.2 -44.89,60.18C-46.72,61.98 -48.54,63.78 -50.37,65.58C-51.19,66.39 -51.19,66.39 -52.02,67.21C-56.7,71.8 -56.7,71.8 -60.81,72.44C-64,72 -64,72 -66.88,69.38C-69.27,65.57 -69.71,64.37 -69,60C-67.25,57.43 -65.08,55.38 -62.83,53.25C-62.2,52.62 -61.57,52 -60.92,51.36C-58.9,49.37 -56.85,47.4 -54.81,45.44C-53.46,44.11 -52.1,42.78 -50.75,41.46C-48.25,39.01 -45.74,36.57 -43.23,34.13C-40.46,31.45 -37.72,28.74 -35,26C-31.98,22.98 -25.2,16.2 -24.44,15.44C-23.09,14.09 -21.72,12.74 -20.36,11.39C-17.6,8.6 -15.08,5.66 -12.55,2.67C-9.17,-0.98 -4.67,-0.72 0,0Z" style="fill:rgb(255,99,92);fill-rule:nonzero;"/>
    </g>
    <g transform="matrix(1,0,0,1,420,406)">
        <path d="M0,0C-0.33,0.99 -0.66,1.98 -1,3C-6.61,3.66 -12.22,4.32 -18,5C-15.6,2.6 -13.95,2.25 -10.69,1.38C-9.74,1.11 -8.8,0.85 -7.82,0.59C-5.12,0.03 -2.75,-0.11 0,0Z" style="fill:rgb(189,190,190);fill-rule:nonzero;"/>
    </g>
    <g transform="matrix(1,0,0,1,259,407)">
        <path d="M0,0C5.42,-0.41 9.07,0.96 14,3C10.47,4.2 7.87,3.8 4.25,3.06C3.27,2.87 2.28,2.67 1.27,2.47C0.52,2.32 -0.23,2.16 -1,2C-0.67,1.34 -0.34,0.68 0,0Z" style="fill:rgb(187,188,189);fill-rule:nonzero;"/>
    </g>
</svg>
