<?xml version="1.0" encoding="UTF-8" standalone="no"?>
<!DOCTYPE svg PUBLIC "-//W3C//DTD SVG 1.1//EN" "http://www.w3.org/Graphics/SVG/1.1/DTD/svg11.dtd">
<svg width="100%" height="100%" viewBox="0 0 701 500" version="1.1" xmlns="http://www.w3.org/2000/svg" xmlns:xlink="http://www.w3.org/1999/xlink" xml:space="preserve" xmlns:serif="http://www.serif.com/" style="fill-rule:evenodd;clip-rule:evenodd;stroke-linejoin:round;stroke-miterlimit:2;">
    <g transform="matrix(1,0,0,1,231.125,116.75)">
        <path d="M0,0C1.09,-0.02 2.18,-0.04 3.3,-0.06C19.5,-0.14 35.17,6.77 46.85,17.97C61.58,32.85 67.34,48.51 67.31,69.01C66.99,85.69 60.78,100.25 49.53,112.68C46.21,115.83 42.56,118.55 38.88,121.25C39.56,121.52 40.24,121.79 40.94,122.06C76.04,136.25 106.51,159.67 122.05,195.19C123.67,199.25 124.98,203.39 126.25,207.56C126.63,208.8 126.63,208.8 127.01,210.06C129.52,218.76 132.34,230.76 128.5,239.31C126.21,242.05 125.16,242.21 121.56,242.69C117.88,242.25 117.88,242.25 115.2,239.71C112.49,236.21 112.13,232.82 111.94,228.5C110.37,209.77 102.21,191.4 89.88,177.25C89.2,176.45 88.52,175.66 87.82,174.84C72.31,157.04 54.19,145.73 31.88,138.25C31.18,138.01 30.49,137.77 29.77,137.53C10.24,131.13 -16.43,131.84 -36.12,137.25C-37.19,137.54 -37.19,137.54 -38.28,137.84C-67.79,146.11 -93.69,164.55 -109.25,191.17C-116.93,204.9 -121.88,219.5 -123.12,235.25C-123.18,235.92 -123.24,236.58 -123.29,237.27C-124.85,258.64 -119.1,280.44 -109.12,299.25C-108.8,299.58 -108.47,299.91 -108.12,300.25C-108.47,307.41 -108.47,307.41 -110.69,310.25C-114.12,311.66 -117.49,312.15 -121.12,311.25C-134.32,301.34 -138.24,274.94 -140.49,259.78C-142.75,240.94 -141.4,219.9 -134.12,202.25C-133.74,201.26 -133.36,200.27 -132.97,199.25C-123.03,174.24 -105.34,152.16 -82.12,138.25C-81.29,137.74 -81.29,137.74 -80.44,137.21C-68.69,130.01 -54.17,121.25 -40.12,121.25C-40.85,120.52 -41.58,119.8 -42.32,119.05C-43.25,118.13 -44.17,117.2 -45.12,116.25C-45.92,115.48 -46.71,114.71 -47.52,113.92C-56.97,104.23 -63.03,92.44 -66.12,79.25C-66.31,78.64 -66.49,78.04 -66.68,77.41C-69.75,62.61 -65.93,44.64 -58.11,32C-47.75,16.25 -34.38,6.12 -16.12,1.25C-15.53,1.08 -14.94,0.9 -14.33,0.72C-9.65,-0.28 -4.77,0.02 0,0Z" style="fill:rgb(82,82,82);fill-rule:nonzero;"/>
    </g>
    <g transform="matrix(1,0,0,1,510,62.3125)">
        <path d="M0,0C16.36,11.44 27.12,26.73 30.69,46.5C32.43,65.03 28.79,81.62 17.5,96.62C9.29,106.54 9.29,106.54 5,108.69C5.67,108.96 6.34,109.22 7.03,109.5C41.45,123.54 71.53,144.73 87,179.69C92.65,193.5 95.56,207.76 95.44,222.69C95.43,223.94 95.43,225.19 95.42,226.48C95.23,237.85 93.73,248.66 91,259.69C90.83,260.36 90.67,261.03 90.5,261.72C85.51,281.1 85.51,281.1 78,285.69C73.6,286.33 71.73,286.2 68.06,283.62C65.48,279.94 65.37,278.11 66,273.69C67,272.02 68,270.35 69,268.69C79.36,243.04 80.96,213.71 70.44,187.91C66.09,178.17 61,169.74 54,161.69C53.32,160.87 52.65,160.05 51.95,159.2C41.96,147.45 29.57,139.68 16,132.69C14.94,132.12 13.88,131.55 12.79,130.97C-11,119.45 -42.67,117.9 -68,124.69C-69.64,125.11 -69.64,125.11 -71.32,125.53C-89.46,130.6 -109.15,140.91 -122.02,154.88C-124.22,156.89 -125.08,157.26 -128,157.25C-131.21,157.07 -131.9,156.77 -134.5,154.62C-136.5,150.7 -136.94,149.05 -136,144.69C-124.52,128.72 -99.85,114.35 -81,109.69C-77.31,109.44 -77.31,109.44 -75,109.69L-75,107.69C-75.57,107.44 -76.14,107.19 -76.73,106.93C-87.44,101.05 -94.29,88.73 -98.18,77.59C-103.25,59.74 -103.15,41.33 -94.43,24.68C-84.82,8.59 -70.33,-2.96 -52.39,-8.41C-34.51,-12.66 -15.62,-9.33 0,0Z" style="fill:rgb(83,83,84);fill-rule:nonzero;"/>
    </g>
    <g transform="matrix(1,0,0,1,229.75,133.688)">
        <path d="M0,0C0.94,-0.02 1.88,-0.03 2.84,-0.05C16.2,-0.06 27.9,4.83 37.56,14.06C47.14,24.2 51.81,34.84 51.62,48.75C51.64,49.63 51.65,50.5 51.66,51.41C51.6,65.59 45.65,76.6 36.04,86.73C26.13,95.9 13.21,100.65 -0.25,100.48C-12.01,99.93 -21.87,96.13 -30.75,88.31C-31.42,87.75 -32.08,87.19 -32.77,86.61C-41.76,78.42 -47.78,66.46 -49.06,54.37C-49.59,41.03 -46.36,27.7 -37.75,17.31C-27.23,6 -15.39,-0.05 0,0Z" style="fill:rgb(252,252,252);fill-rule:nonzero;"/>
    </g>
    <g transform="matrix(1,0,0,1,543,285)">
        <path d="M0,0C2.7,1.8 4.54,3.08 6,6C6.9,14.45 0.55,20.57 -4.44,26.8C-15.87,40.76 -28.6,54.1 -43,65C-43.52,65.4 -44.05,65.81 -44.58,66.23C-69.13,85.18 -96.12,98.97 -125,110C-126.13,110.43 -127.26,110.86 -128.42,111.31C-136.74,114.39 -145.09,116.68 -153.75,118.62C-154.4,118.77 -155.05,118.92 -155.72,119.08C-166.1,121.45 -176.46,123.53 -187,125C-187.67,125.1 -188.34,125.19 -189.03,125.29C-258.52,135.16 -334.99,123.17 -393,82C-393.81,81.46 -394.62,80.91 -395.45,80.35C-398.92,77.8 -400.47,75.59 -401.25,71.44C-401.37,67.89 -401.04,67.06 -399,63.94C-395.06,61.39 -393.62,61.01 -389,62C-386.44,63.76 -384.14,65.71 -381.78,67.72C-376.89,71.73 -371.47,74.85 -366,78C-365.39,78.36 -364.78,78.71 -364.15,79.08C-337,94.78 -305.92,103.06 -275,107C-274.36,107.09 -273.73,107.17 -273.07,107.26C-260.35,108.97 -247.77,109.36 -234.94,109.31L-231.95,109.31C-216.76,109.27 -202.01,108.55 -187,106C-185.49,105.77 -183.98,105.54 -182.47,105.31C-171.18,103.52 -160.08,100.77 -149,98C-147.87,97.72 -146.74,97.44 -145.57,97.15C-141.37,96.07 -137.35,94.8 -133.34,93.16C-129.91,91.77 -126.47,90.4 -123.02,89.06C-105.27,82.08 -87.71,73.91 -72,63C-71.39,62.59 -70.78,62.18 -70.15,61.75C-49.04,47.49 -28.18,30.26 -13.95,8.92C-7.51,-0.74 -7.51,-0.74 0,0Z" style="fill:rgb(82,82,83);fill-rule:nonzero;"/>
    </g>
    <g transform="matrix(1,0,0,1,474.285,68.8828)">
        <path d="M0,0C13.13,0.41 25.97,5.36 35.53,14.37C39.75,18.88 42.95,23.6 45.71,29.12C46.13,29.92 46.54,30.73 46.97,31.56C51.03,40.83 51.56,53.26 48.59,62.99C48,64.38 47.37,65.76 46.71,67.12C46.34,68.05 45.96,68.97 45.57,69.93C40.12,82.28 31.23,90.3 19.13,95.81C14.33,97.65 9.83,98.7 4.71,99.12C3.83,99.2 2.95,99.28 2.05,99.36C-11.45,100.01 -23.3,94.16 -33.54,85.8C-42.71,77.39 -48.67,65.08 -49.44,52.64C-49.47,50.13 -49.4,47.63 -49.29,45.12C-49.29,44.41 -49.3,43.7 -49.3,42.98C-48.9,32.15 -41.99,21.86 -34.67,14.3C-24.33,4.82 -13.88,0.5 0,0Z" style="fill:rgb(252,252,252);fill-rule:nonzero;"/>
    </g>
    <g transform="matrix(1,0,0,1,559,250)">
        <path d="M0,0C2.32,3.09 2.43,6.33 2.31,10.09C2,12 2,12 0.44,14.5C-2.93,16.57 -5.09,16.36 -9,16C-11.75,14.31 -11.75,14.31 -14.44,12C-36.25,-5.34 -64.36,-11.22 -91.62,-11.31C-92.35,-11.32 -93.08,-11.32 -93.84,-11.32C-106.6,-11.33 -118.56,-9.97 -131,-7C-132.1,-6.77 -133.2,-6.55 -134.34,-6.31C-156.67,-1.42 -178.09,9.39 -197,22C-203.89,22.79 -207.56,21.08 -213.19,17.25C-214.22,16.58 -214.22,16.58 -215.26,15.91C-225.73,9.06 -225.73,9.06 -226.88,4.62C-225.92,0.67 -225.64,0.27 -222.5,-1.94C-220.69,-3 -218.85,-4.02 -217,-5C-216.14,-5.46 -216.14,-5.46 -215.26,-5.93C-210.56,-8.4 -205.8,-10.73 -201,-13C-200.35,-13.31 -199.69,-13.62 -199.02,-13.94C-188.31,-18.98 -177.35,-22.71 -166,-26C-164.95,-26.31 -163.91,-26.62 -162.83,-26.93C-110.86,-41.08 -42.7,-35.68 0,0Z" style="fill:rgb(255,99,92);fill-rule:nonzero;"/>
    </g>
</svg>
