<?xml version="1.0" encoding="UTF-8" standalone="no"?>
<!DOCTYPE svg PUBLIC "-//W3C//DTD SVG 1.1//EN" "http://www.w3.org/Graphics/SVG/1.1/DTD/svg11.dtd">
<svg width="100%" height="100%" viewBox="0 0 700 500" version="1.1" xmlns="http://www.w3.org/2000/svg" xmlns:xlink="http://www.w3.org/1999/xlink" xml:space="preserve" xmlns:serif="http://www.serif.com/" style="fill-rule:evenodd;clip-rule:evenodd;stroke-linejoin:round;stroke-miterlimit:2;">
    <g transform="matrix(1,0,0,1,287.117,184.86)">
        <path d="M0,0C0.86,-0.01 1.72,-0.01 2.61,-0.02L5.49,-0.02C6.98,-0.03 6.98,-0.03 8.51,-0.04C11.82,-0.05 15.12,-0.06 18.43,-0.06C20.73,-0.07 23.02,-0.07 25.32,-0.08C30.13,-0.09 34.95,-0.1 39.77,-0.1C45.94,-0.11 52.11,-0.13 58.29,-0.16C63.03,-0.18 67.77,-0.18 72.51,-0.18C74.79,-0.19 77.06,-0.19 79.34,-0.21C82.52,-0.22 85.71,-0.22 88.89,-0.22C89.83,-0.23 90.78,-0.23 91.75,-0.24C96.59,-0.21 100,-0.1 103.88,3.14C105.93,6.2 106.13,6.82 106.14,10.26C106.15,11.1 106.16,11.94 106.17,12.8C106.16,13.72 106.16,14.64 106.16,15.58C106.16,16.55 106.17,17.52 106.17,18.51C106.19,21.72 106.19,24.93 106.18,28.13C106.19,30.36 106.19,32.58 106.2,34.81L106.2,48.82C106.19,54.8 106.21,60.79 106.23,66.77C106.25,71.37 106.25,75.97 106.25,80.56C106.25,82.77 106.25,84.98 106.26,87.18C106.27,90.27 106.27,93.35 106.26,96.44C106.26,97.35 106.27,98.27 106.28,99.21C106.24,103.97 106.12,107.37 102.88,111.14C98.43,114.97 93.72,114.57 88.14,114.54C86.67,114.55 86.67,114.55 85.18,114.57C81.96,114.58 78.73,114.58 75.51,114.57C73.27,114.58 71.03,114.58 68.78,114.59C64.08,114.6 59.38,114.6 54.68,114.59C48.66,114.57 42.64,114.6 36.62,114.62C31.99,114.64 27.36,114.64 22.73,114.64C20.51,114.64 18.29,114.64 16.07,114.66C12.96,114.67 9.86,114.66 6.76,114.64C5.84,114.65 4.93,114.66 3.98,114.67C-1.51,114.61 -4.83,113.93 -9.12,110.14C-10.83,107.32 -11.37,105.22 -11.39,101.94C-11.4,101.11 -11.41,100.28 -11.42,99.43L-11.42,96.69C-11.43,95.74 -11.44,94.78 -11.45,93.8C-11.47,90.63 -11.48,87.47 -11.49,84.3C-11.5,82.1 -11.51,79.91 -11.52,77.71C-11.53,73.09 -11.54,68.48 -11.54,63.87C-11.55,57.96 -11.59,52.06 -11.63,46.15C-11.66,41.61 -11.67,37.06 -11.67,32.52C-11.67,30.34 -11.69,28.16 -11.71,25.99C-11.73,22.94 -11.73,19.89 -11.72,16.85C-11.73,15.95 -11.75,15.05 -11.76,14.13C-11.71,9.82 -11.46,7.01 -8.7,3.6C-5.53,0.58 -4.22,0.02 0,0Z" style="fill:rgb(255,99,92);fill-rule:nonzero;"/>
    </g>
    <g transform="matrix(1,0,0,1,175.812,223.812)">
        <path d="M0,0C0.77,-0.01 1.54,-0.02 2.33,-0.04C17.12,-0.07 29.71,6.33 40.41,16.25C50.67,27.02 55.55,39.37 55.5,54.06C55.52,55 55.53,55.95 55.55,56.92C55.55,63.23 54.59,68.36 52.19,74.19C51.76,75.23 51.34,76.27 50.9,77.34C45.69,88.19 38.68,96.24 28.19,102.19C27.39,102.65 26.6,103.11 25.79,103.59C13,110.56 -3.01,111.3 -16.91,107.29C-30.16,102.27 -42,92.69 -48.81,80.19C-55.58,64.29 -57.11,49.55 -50.81,33.19C-44.63,19.75 -34.03,8.9 -20.29,3.13C-18.14,2.38 -16.02,1.73 -13.81,1.19C-13.08,1 -12.36,0.82 -11.61,0.63C-7.73,0.02 -3.92,0 0,0Z" style="fill:rgb(77,78,83);fill-rule:nonzero;"/>
    </g>
    <g transform="matrix(1,0,0,1,414,347)">
        <path d="M0,0C7.89,3.49 11.12,11.65 14.94,18.88C19.42,27.25 23.98,35.56 28.69,43.81C33.02,51.42 37.21,59.08 41.25,66.84C44.55,73.18 47.95,79.47 51.38,85.75C51.88,86.67 52.38,87.58 52.89,88.53C53.37,89.4 53.84,90.27 54.34,91.17C54.79,92 55.24,92.83 55.71,93.69C56.87,95.76 58.09,97.79 59.32,99.82C61.71,104.34 61.84,108.01 61,113C58.67,117.15 56.49,118.67 52,120C48.51,120.3 45.03,120.29 41.52,120.29C40.47,120.3 39.41,120.3 38.33,120.31C34.84,120.33 31.36,120.33 27.88,120.34C25.46,120.34 23.03,120.35 20.61,120.36C15.54,120.37 10.46,120.37 5.38,120.37C-1.12,120.37 -7.63,120.4 -14.13,120.43C-19.13,120.45 -24.14,120.46 -29.14,120.46C-31.54,120.46 -33.93,120.47 -36.33,120.48C-39.69,120.5 -43.04,120.5 -46.39,120.49C-47.38,120.5 -48.37,120.51 -49.39,120.52C-55.25,120.47 -58.52,119.86 -63,116C-65.26,113.21 -65.94,111.35 -66.56,107.81C-65.89,103.29 -64.27,100.76 -61.82,96.96C-59.79,93.65 -58.07,90.24 -56.38,86.75C-53.28,80.45 -50.01,74.27 -46.62,68.12C-41.67,59.13 -36.85,50.07 -32.06,40.99C-29.04,35.27 -26.01,29.56 -22.98,23.85C-22.09,22.16 -21.19,20.47 -20.3,18.78C-18.94,16.22 -17.57,13.67 -16.19,11.12C-15.82,10.43 -15.46,9.74 -15.08,9.02C-11.39,2.29 -7.87,-0.98 0,0Z" style="fill:rgb(77,79,84);fill-rule:nonzero;"/>
    </g>
    <g transform="matrix(1,0,0,1,233,338)">
        <path d="M0,0C1.74,1.62 3.37,3.27 5,5C6.27,6.3 7.54,7.6 8.82,8.89C9.86,9.95 9.86,9.95 10.93,11.03C17.99,18.17 25.07,24.83 33,31C34.71,32.44 36.42,33.87 38.12,35.31C48.89,44.07 60.23,51.76 72.25,58.69C73.14,59.2 74.04,59.72 74.96,60.26C75.8,60.73 76.65,61.21 77.52,61.7C78.26,62.12 79.01,62.54 79.77,62.98C82.97,64.45 85.61,65.36 89.09,64.46C89.77,64.15 90.46,63.84 91.16,63.52C91.94,63.16 92.73,62.81 93.54,62.45C94.37,62.05 95.2,61.66 96.06,61.25C96.93,60.85 97.79,60.45 98.68,60.04C108.37,55.5 117.71,50.3 127,45C127,50.58 123.49,55.49 121,60.38C120.17,62.08 120.17,62.08 119.32,63.82C115.85,70.63 113.05,74.89 106,78C105.26,78.36 104.53,78.71 103.77,79.08C97.62,81.97 91.3,84.48 85,87C84.11,87.36 83.23,87.71 82.31,88.08C40.55,104.48 -13.89,113.12 -56.45,95.57C-65.14,91.73 -72.81,87.23 -80,81C-80.75,80.36 -81.5,79.71 -82.28,79.05C-95.16,67.16 -102.4,49.32 -103.24,31.96C-103.27,30.58 -103.29,29.19 -103.31,27.81C-103.34,27.11 -103.37,26.42 -103.4,25.7C-103.44,22.27 -103.26,20.35 -101.22,17.55C-98.58,15.71 -96.39,15.48 -93.2,15.37C-89.71,16.37 -87.2,18.17 -85,21C-84.1,23.84 -83.99,26.6 -83.88,29.56C-82.82,43.44 -78.62,56.53 -68.16,66.28C-59.68,73.03 -50.31,77.78 -40,81C-38.76,81.39 -37.51,81.79 -36.23,82.19C-5.82,90.78 33.75,85.26 63,74C62.52,73.71 62.04,73.43 61.54,73.13C51.6,67.22 42.08,61.17 33,54C31.84,53.1 30.67,52.21 29.51,51.31C22.39,45.82 15.6,40.11 9,34C8.02,33.12 7.04,32.25 6.04,31.35C-12.42,14.83 -12.42,14.83 -12.94,8.69C-12,5 -12,5 -9.38,2C-5.69,-0.18 -4.17,-0.89 0,0Z" style="fill:rgb(76,78,82);fill-rule:nonzero;"/>
    </g>
    <g transform="matrix(1,0,0,1,525.812,26.875)">
        <path d="M0,0C3.93,5.61 2.44,12.3 1.3,18.8C0.9,20.87 0.49,22.94 0.06,25C-0.16,26.12 -0.38,27.24 -0.61,28.39C-2.52,37.94 -4.57,47.45 -6.65,56.96C-7.83,62.41 -8.97,67.86 -9.94,73.35C-10.11,74.31 -10.28,75.27 -10.46,76.25C-10.77,78.02 -11.06,79.79 -11.34,81.56C-12.24,86.68 -13.53,90.05 -16.81,94.12C-20.49,95.96 -23.84,96.18 -27.81,95.12C-31.63,92.2 -34.85,88.9 -37.81,85.12L-37.81,83.12C-38.41,82.86 -39.01,82.6 -39.62,82.34C-41.98,81.03 -43.13,79.83 -44.81,77.75C-48.41,73.48 -52.29,69.58 -56.29,65.69C-59.04,62.98 -61.64,60.21 -64.16,57.28C-68,52.84 -72.13,48.74 -76.31,44.62C-81.15,39.87 -85.84,35.08 -90.24,29.92C-91.86,28.08 -93.54,26.32 -95.25,24.56C-97.46,21.96 -97.83,21.04 -98.5,17.5C-97.64,13.3 -96.06,11.82 -92.81,9.12C-92.48,8.8 -92.15,8.47 -91.81,8.12C-88.77,7.65 -85.73,7.24 -82.67,6.86C-81.73,6.73 -80.79,6.61 -79.82,6.49C-76.73,6.09 -73.65,5.7 -70.56,5.31C-66.34,4.77 -62.12,4.23 -57.89,3.69C-56.85,3.56 -55.81,3.42 -54.73,3.29C-48.73,2.51 -42.74,1.71 -36.76,0.84C-35.47,0.65 -34.18,0.47 -32.84,0.27C-30.54,-0.06 -28.24,-0.41 -25.93,-0.76C-5.55,-3.72 -5.55,-3.72 0,0Z" style="fill:rgb(255,99,92);fill-rule:nonzero;"/>
    </g>
    <g transform="matrix(1,0,0,1,538,88)">
        <path d="M0,0C9.62,1.61 19.64,12.03 25.2,19.64C27.98,23.65 30.52,27.79 33,32C33.42,32.71 33.84,33.42 34.28,34.15C44.91,53.71 46.54,80.78 41.15,102.18C40.77,103.44 40.39,104.7 40,106C39.64,107.26 39.64,107.26 39.27,108.55C32.7,131.08 22.52,151.84 9,171C8.46,171.77 7.91,172.54 7.35,173.34C-0.25,184.03 -8.25,194.23 -17,204C-17.84,204.96 -18.69,205.91 -19.56,206.89C-25.25,213.22 -31.18,219.28 -37.19,225.31C-37.94,226.07 -38.68,226.82 -39.46,227.59C-44.14,232.27 -48.97,236.7 -54,241C-54.96,241.85 -55.93,242.69 -56.92,243.56C-63.61,249.33 -70.49,254.82 -77.5,260.19C-78.36,260.86 -79.22,261.53 -80.11,262.22C-80.93,262.85 -81.75,263.47 -82.59,264.11C-83.69,264.94 -83.69,264.94 -84.8,265.8C-87.43,267.23 -89.05,267.34 -92,267C-93.77,265.54 -93.77,265.54 -95.25,263.62C-95.75,263 -96.25,262.37 -96.77,261.73C-98.35,259.52 -99,257.98 -99.57,255.29C-98.66,250.07 -94.97,248.27 -90.81,245.31C-89.15,244.08 -87.5,242.85 -85.84,241.61C-84.61,240.7 -84.61,240.7 -83.35,239.77C-80.09,237.31 -76.97,234.72 -73.88,232.06C-73.35,231.61 -72.82,231.16 -72.27,230.69C-70.85,229.47 -69.42,228.23 -68,227C-67.29,226.39 -66.58,225.78 -65.85,225.15C-52.73,213.81 -39.81,202.1 -29,188.5C-27.29,186.36 -25.53,184.33 -23.69,182.31C-4.79,160.79 10.03,135.16 19,108C19.26,107.24 19.52,106.47 19.78,105.68C26.22,85.57 26.26,63.45 17.57,44.01C12.84,34.92 7.35,27.53 -1.03,21.49C-3,20 -3,20 -4,18C-4.71,11.36 -2.47,6.1 0,0Z" style="fill:rgb(75,77,81);fill-rule:nonzero;"/>
    </g>
    <g transform="matrix(1,0,0,1,236.25,68.625)">
        <path d="M0,0L2.25,0C15.72,0.04 28.6,1.35 41.75,4.38C42.64,4.58 43.53,4.78 44.44,4.99C53.49,7.12 62.24,9.59 70.75,13.38C71.64,13.7 72.53,14.03 73.45,14.36C75.75,15.38 75.75,15.38 76.75,17.38C76.88,22.11 76.35,25.51 73.62,29.44C69.9,31.95 68.22,31.75 63.75,31.38C60.32,30.46 57.02,29.27 53.69,28.06C45.42,25.18 37.38,22.91 28.75,21.38C28,21.21 27.25,21.04 26.47,20.87C18.22,19.14 10.03,18.98 1.62,19L-0.59,19C-11.61,19.03 -21.77,19.66 -32.25,23.38C-33.32,23.75 -34.39,24.12 -35.5,24.51C-56.76,32.7 -71.61,46.56 -80.99,67.2C-84.2,75.28 -84.56,82 -84.5,90.69C-84.51,91.86 -84.52,93.03 -84.52,94.24C-84.51,101.23 -83.84,107.59 -82.25,114.38C-81.86,116.64 -81.48,118.91 -81.12,121.19C-80.96,122.25 -80.79,123.3 -80.62,124.39C-80.28,127.13 -80,129.63 -80.25,132.38C-82.63,134.13 -82.63,134.13 -85.25,135.38C-85.91,135.71 -86.57,136.03 -87.25,136.38C-94.67,136.85 -94.67,136.85 -96.8,135.12C-98.5,133.07 -98.88,131.67 -99.38,129.06C-99.55,128.21 -99.72,127.36 -99.89,126.49C-100.05,125.61 -100.21,124.72 -100.38,123.81C-100.54,122.96 -100.71,122.1 -100.89,121.22C-102.9,110.66 -103.45,100.3 -103.5,89.56C-103.52,88.38 -103.54,87.2 -103.56,85.98C-103.61,74.78 -101.9,64.28 -96.62,54.31C-96.28,53.64 -95.93,52.97 -95.58,52.28C-82.15,27.12 -59.06,11.58 -32.36,3.38C-21.63,0.59 -11.03,-0.03 0,0Z" style="fill:rgb(76,78,83);fill-rule:nonzero;"/>
    </g>
    <g transform="matrix(1,0,0,1,409,66)">
        <path d="M0,0C3.87,2.97 5.84,5.93 6.56,10.75C5.95,14.27 5.71,14.89 3,17C0.57,17.89 0.57,17.89 -2.44,18.69C-32.33,27.46 -60.26,43.06 -86.69,59.25C-87.75,59.9 -88.81,60.55 -89.91,61.22C-96.84,65.51 -103.45,70.14 -110,75C-111.21,75.87 -112.43,76.73 -113.64,77.58C-125.53,85.95 -136.85,94.92 -147.89,104.37C-150.84,106.88 -153.85,109.32 -156.88,111.75C-160.54,114.73 -163.95,117.81 -167.22,121.23C-168.97,122.97 -170.77,124.56 -172.65,126.16C-177.28,130.18 -181.58,134.5 -185.88,138.88C-187.37,140.4 -188.87,141.91 -190.37,143.43C-191.34,144.42 -191.34,144.42 -192.34,145.44C-194.54,147.51 -195.73,147.96 -198.75,148.38C-203.24,147.86 -204.98,146.3 -208,143C-209.31,139.69 -209.31,139.69 -209,136C-207.16,132.88 -204.58,130.52 -202,128C-200.9,126.88 -199.8,125.75 -198.7,124.62C-193.34,119.17 -187.95,113.77 -182.11,108.83C-179.81,106.84 -177.6,104.78 -175.38,102.7C-169.12,96.86 -162.68,91.36 -156,86C-154.81,85.02 -153.62,84.03 -152.43,83.05C-137.6,70.8 -122.17,59.41 -106,49C-105.26,48.52 -104.53,48.05 -103.77,47.56C-93.05,40.64 -82.22,34.06 -71,28C-70.12,27.52 -69.24,27.04 -68.34,26.54C-56.05,19.84 -43.62,13.77 -30.69,8.44C-29.5,7.95 -28.32,7.46 -27.1,6.96C-21.59,4.73 -16.05,2.59 -10.46,0.6C-9.52,0.26 -8.59,-0.07 -7.63,-0.41C-4.69,-1.07 -2.87,-0.87 0,0Z" style="fill:rgb(76,77,82);fill-rule:nonzero;"/>
    </g>
    <g transform="matrix(1,0,0,1,198,247)">
        <path d="M0,0C8.34,5.55 13.79,14.32 16,24C17.09,35.64 15.67,45.23 8.81,54.81C5.11,59.22 1.04,62.26 -4,65C-4.76,65.41 -5.52,65.83 -6.3,66.25C-15.14,70.41 -24.82,70.4 -34,67.25C-38.01,65.58 -41.53,63.64 -45,61C-45.82,60.44 -46.65,59.89 -47.5,59.31C-54.12,53.19 -58.89,44.69 -59.43,35.6C-59.46,34.09 -59.46,32.57 -59.44,31.06C-59.43,30.27 -59.42,29.48 -59.41,28.66C-59.25,22.69 -58.37,18.04 -55,13C-54.58,12.32 -54.15,11.64 -53.71,10.94C-41.32,-7.29 -18.63,-11.31 0,0Z" style="fill:rgb(211,211,212);fill-rule:nonzero;"/>
    </g>
    <g transform="matrix(1,0,0,1,550,288)">
        <path d="M0,0C4.13,3.22 6.3,7.72 8.75,12.25C9.19,13.05 9.62,13.85 10.07,14.68C11.39,17.11 12.7,19.56 14,22C14.37,22.68 14.73,23.36 15.11,24.07C23.37,39.5 30.01,55.7 33,73C33.17,73.72 33.33,74.43 33.5,75.17C35.04,82.01 35.35,88.57 35.31,95.56C35.31,96.71 35.3,97.85 35.3,99.03C34.97,121.88 29.17,140.4 13.19,157.25C5.22,164.94 -3.9,169.69 -14,174C-15.64,174.8 -15.64,174.8 -17.31,175.62C-26.65,179.11 -36.07,180.55 -46,180C-49.78,170.88 -49.78,170.88 -49,166C-45.86,161.89 -43,161.29 -38,160.5C-31.07,159.29 -24.57,157.56 -18,155C-17.16,154.68 -16.32,154.35 -15.46,154.02C-3.93,148.94 6.2,138.83 11.17,127.28C12.21,124.53 13.16,121.81 14,119C14.36,117.81 14.71,116.62 15.08,115.39C22.44,85.04 8.78,50.53 -6.51,24.73C-6.92,24.02 -7.34,23.31 -7.77,22.58C-8.56,21.24 -9.38,19.9 -10.21,18.58C-13.03,13.84 -13.55,10.51 -13,5C-9.25,0.13 -6.03,-0.52 0,0Z" style="fill:rgb(76,77,82);fill-rule:nonzero;"/>
    </g>
    <g transform="matrix(1,0,0,1,383.895,123.648)">
        <path d="M0,0C3.56,0.6 6.2,2.5 9.04,4.6C10,5.28 10,5.28 10.97,5.96C12.33,6.92 13.69,7.89 15.04,8.86C17.08,10.33 19.15,11.77 21.22,13.2C36.5,23.74 51.07,35.2 65.1,47.35C65.82,47.96 66.53,48.57 67.26,49.2C72.79,53.98 78.15,58.95 83.52,63.9C85.1,65.35 86.68,66.79 88.26,68.22C95.93,75.19 103.38,82.23 110.13,90.1C112.06,92.31 114.05,94.44 116.06,96.58C120.32,101.15 124.45,105.8 128.29,110.73C129.03,111.66 129.76,112.6 130.52,113.56C132.38,116.83 132.61,118.65 132.1,122.35C130.46,125.34 128.18,127.81 125.1,129.35C122.25,129.68 122.25,129.68 119.1,129.35C116.87,127.55 116.87,127.55 114.79,125.04C114.02,124.13 113.26,123.22 112.46,122.28C111.69,121.31 110.91,120.35 110.1,119.35C108.58,117.48 107.06,115.6 105.54,113.73C104.8,112.81 104.06,111.89 103.3,110.95C100.76,107.95 98.07,105.2 95.22,102.5C93.36,100.61 91.65,98.68 89.92,96.68C85.87,92.01 81.55,87.65 77.17,83.29C76.41,82.53 75.65,81.76 74.86,80.98C70.66,76.77 66.36,72.74 61.85,68.86C59.68,66.99 57.58,65.05 55.48,63.1C49.89,58.07 44.01,53.47 38.06,48.88C36.04,47.31 34.05,45.71 32.05,44.1C22.44,36.43 12.5,29.45 2.16,22.77C-10.42,14.58 -10.42,14.58 -11.52,9.41C-10.15,2.71 -6.83,-0.25 0,0Z" style="fill:rgb(76,77,82);fill-rule:nonzero;"/>
    </g>
    <g transform="matrix(1,0,0,1,411,373)">
        <path d="M0,0C2.71,2.42 4.21,4.97 5.9,8.17C6.45,9.22 7.01,10.26 7.58,11.34C8.47,13.03 8.47,13.03 9.38,14.75C10.64,17.13 11.9,19.5 13.17,21.88C13.49,22.48 13.81,23.08 14.14,23.7C17.21,29.43 20.4,35.1 23.62,40.75C28.07,48.58 32.48,56.42 36.81,64.31C37.33,65.26 37.86,66.2 38.4,67.17C38.87,68.04 39.34,68.91 39.83,69.8C40.25,70.57 40.67,71.33 41.1,72.12C42,74 42,74 42,76L-40,76C-38.66,71.98 -37.63,69.04 -35.64,65.48C-35.17,64.64 -34.7,63.79 -34.22,62.92C-33.71,62.02 -33.21,61.12 -32.69,60.19C-28.17,52.02 -23.78,43.8 -19.5,35.5C-15.17,27.12 -10.76,18.78 -6.25,10.5C-5.74,9.56 -5.22,8.61 -4.69,7.64C-1.13,1.13 -1.13,1.13 0,0Z" style="fill:rgb(208,208,209);fill-rule:nonzero;"/>
    </g>
</svg>
