<?xml version="1.0" encoding="UTF-8" standalone="no"?>
<!DOCTYPE svg PUBLIC "-//W3C//DTD SVG 1.1//EN" "http://www.w3.org/Graphics/SVG/1.1/DTD/svg11.dtd">
<svg width="100%" height="100%" viewBox="0 0 331 81" version="1.1" xmlns="http://www.w3.org/2000/svg" xmlns:xlink="http://www.w3.org/1999/xlink" xml:space="preserve" xmlns:serif="http://www.serif.com/" style="fill-rule:evenodd;clip-rule:evenodd;stroke-linejoin:round;stroke-miterlimit:2;">
    <g transform="matrix(1,0,0,1,-1525.57,-367.897)">
        <path d="M1540.49,428.953C1534.26,428.953 1529.97,423.602 1529.97,415.608C1529.97,407.615 1534.26,402.204 1540.49,402.204C1545.02,402.204 1548.1,404.786 1549.04,408.813L1553.38,408.813C1552.25,402.769 1547.6,398.555 1540.48,398.555C1531.92,398.555 1525.57,405.478 1525.57,415.612C1525.57,425.746 1531.86,432.668 1540.42,432.668C1547.41,432.668 1552.26,428.451 1553.45,422.157L1549.11,422.157C1548.16,426.438 1545.02,428.956 1540.49,428.956L1540.49,428.953Z" style="fill:rgb(255,99,92);fill-rule:nonzero;"/>
    </g>
    <g transform="matrix(1,0,0,1,-1525.57,-367.907)">
        <path d="M1584.48,408.883C1584.48,402.716 1580.2,398.562 1572.64,398.562C1565.09,398.562 1560.25,402.716 1559.43,408.82L1563.77,408.82C1564.39,404.539 1567.61,402.084 1572.64,402.084C1577.05,402.084 1580.19,404.475 1580.19,408.064C1580.19,410.769 1578.43,411.652 1575.47,412.09L1568.8,413.033C1562.57,413.916 1557.85,416.431 1557.85,422.916C1557.85,429.401 1563.13,432.672 1569.17,432.672C1573.9,432.672 1578.43,430.154 1580.31,426.378C1580.38,428.582 1580.51,430.344 1580.76,431.979L1584.85,431.979C1584.6,429.652 1584.47,427.575 1584.47,424.428L1584.47,408.883L1584.48,408.883ZM1580.19,419.395C1580.19,425.502 1575.47,429.214 1569.62,429.214C1565.4,429.214 1562,426.886 1562,422.733C1562,418.264 1565.28,416.94 1569.87,416.124L1576.73,414.99C1578.18,414.739 1579.31,414.425 1580.19,413.92L1580.19,419.395L1580.19,419.395Z" style="fill:rgb(255,99,92);fill-rule:nonzero;"/>
    </g>
    <g transform="matrix(1,0,0,1,-1525.57,-367.893)">
        <path d="M1608.08,413.906L1599.77,412.271C1596.81,411.705 1595.11,410.572 1595.11,407.863C1595.11,404.337 1598.39,402.073 1602.79,402.073C1607.77,402.073 1610.72,404.528 1611.35,408.809L1615.69,408.809C1614.94,402.642 1610.47,398.552 1602.79,398.552C1595.87,398.552 1590.89,402.706 1590.89,408.117C1590.89,413.026 1594.04,415.04 1598.44,415.923L1606.57,417.498C1610.09,418.19 1611.73,419.766 1611.73,422.849C1611.73,426.689 1608.08,429.143 1603.48,429.143C1598.19,429.143 1594.61,426.565 1593.85,422.157L1589.45,422.157C1590.27,428.451 1595.62,432.668 1603.48,432.668C1610.53,432.668 1616.07,428.515 1616.07,422.535C1616.07,417.625 1613.05,414.983 1608.08,413.913L1608.08,413.906Z" style="fill:rgb(255,99,92);fill-rule:nonzero;"/>
    </g>
    <g transform="matrix(1,0,0,1,-1525.57,-367.907)">
        <path d="M1647.33,408.883C1647.33,402.716 1643.05,398.562 1635.5,398.562C1627.94,398.562 1623.1,402.716 1622.28,408.82L1626.62,408.82C1627.25,404.539 1630.46,402.084 1635.49,402.084C1639.9,402.084 1643.05,404.475 1643.05,408.064C1643.05,410.769 1641.28,411.652 1638.32,412.09L1631.65,413.033C1625.42,413.916 1620.7,416.431 1620.7,422.916C1620.7,429.401 1625.99,432.672 1632.03,432.672C1636.75,432.672 1641.28,430.154 1643.17,426.378C1643.23,428.582 1643.36,430.344 1643.61,431.979L1647.7,431.979C1647.45,429.652 1647.32,427.575 1647.32,424.428L1647.32,408.883L1647.33,408.883ZM1643.05,419.395C1643.05,425.502 1638.33,429.214 1632.48,429.214C1628.26,429.214 1624.86,426.886 1624.86,422.733C1624.86,418.264 1628.13,416.94 1632.73,416.124L1639.59,414.99C1641.03,414.739 1642.16,414.425 1643.05,413.92L1643.05,419.395L1643.05,419.395Z" style="fill:rgb(255,99,92);fill-rule:nonzero;"/>
    </g>
    <g transform="matrix(1,0,0,1,-1525.57,-381.121)">
        <path d="M1656.52,408.502L1656.52,412.468L1651.23,412.468L1651.23,416.057L1656.52,416.057L1656.52,445.197L1660.86,445.197L1660.86,416.057L1669.48,416.057L1669.48,412.468L1660.86,412.468L1660.86,408.064C1660.86,404.475 1662.69,402.84 1665.64,402.84L1669.48,402.84L1669.48,399.251L1665.58,399.251C1660.1,399.251 1656.52,402.208 1656.52,408.502L1656.52,408.502Z" style="fill:rgb(255,99,92);fill-rule:nonzero;"/>
    </g>
    <g transform="matrix(1,0,0,1,-1525.57,-367.907)">
        <path d="M1698.32,408.883C1698.32,402.716 1694.05,398.562 1686.49,398.562C1678.93,398.562 1674.09,402.716 1673.27,408.82L1677.61,408.82C1678.24,404.539 1681.45,402.084 1686.49,402.084C1690.89,402.084 1694.04,404.475 1694.04,408.064C1694.04,410.769 1692.28,411.652 1689.32,412.09L1682.65,413.033C1676.42,413.916 1671.69,416.431 1671.69,422.916C1671.69,429.401 1676.98,432.672 1683.02,432.672C1687.74,432.672 1692.28,430.154 1694.16,426.378C1694.23,428.582 1694.36,430.344 1694.61,431.979L1698.7,431.979C1698.45,429.652 1698.32,427.575 1698.32,424.428L1698.32,408.883L1698.32,408.883ZM1694.05,419.395C1694.05,425.502 1689.32,429.214 1683.47,429.214C1679.25,429.214 1675.85,426.886 1675.85,422.733C1675.85,418.264 1679.13,416.94 1683.72,416.124L1690.58,414.99C1692.03,414.739 1693.16,414.425 1694.04,413.92L1694.04,419.395L1694.05,419.395Z" style="fill:rgb(255,99,92);fill-rule:nonzero;"/>
    </g>
    <g transform="matrix(1,0,0,1,-1525.57,-368.211)">
        <path d="M1709.84,407.054L1709.84,399.562L1705.43,399.562L1705.43,432.29L1709.84,432.29L1709.84,415.17C1709.84,408.435 1714.75,403.529 1720.35,403.529L1722.24,403.529L1722.24,399.248L1720.67,399.248C1715.38,399.248 1711.41,402.582 1709.84,407.054Z" style="fill:rgb(255,99,92);fill-rule:nonzero;"/>
    </g>
    <g transform="matrix(1,0,0,1,-1525.57,-382.894)">
        <path d="M1852.81,410.593L1855.88,407.52L1831.26,382.894L1788.73,425.431L1788.73,398.029L1784.38,398.029L1784.38,425.431L1765,406.058L1761.93,409.131L1781.31,428.504L1753.92,428.504C1753.12,419.628 1747.29,413.549 1739.17,413.549C1730.42,413.549 1724.31,420.599 1724.31,430.606C1724.31,440.612 1730.42,447.662 1739.17,447.662C1747.25,447.662 1753.07,441.636 1753.9,432.827L1753.9,432.852L1781.31,432.852L1761.93,452.226L1765,455.299L1784.38,435.925L1784.38,463.327L1788.73,463.327L1788.73,435.925L1808.1,455.299L1811.18,452.226L1791.8,432.852L1819.2,432.852L1819.2,428.504L1791.8,428.504L1819.68,400.622L1841.23,422.171L1844.3,419.098L1822.75,397.549L1831.26,389.043L1852.81,410.593L1852.81,410.593ZM1739.17,444.01C1732.81,444.01 1728.72,438.599 1728.72,430.606C1728.72,422.612 1732.81,417.201 1739.17,417.201C1745.53,417.201 1749.68,422.612 1749.68,430.606C1749.68,438.599 1745.53,444.01 1739.17,444.01Z" style="fill:rgb(255,99,92);fill-rule:nonzero;"/>
    </g>
</svg>
