<?xml version="1.0" encoding="UTF-8" standalone="no"?>
<!DOCTYPE svg PUBLIC "-//W3C//DTD SVG 1.1//EN" "http://www.w3.org/Graphics/SVG/1.1/DTD/svg11.dtd">
<svg width="100%" height="100%" viewBox="0 0 113 89" version="1.1" xmlns="http://www.w3.org/2000/svg" xmlns:xlink="http://www.w3.org/1999/xlink" xml:space="preserve" xmlns:serif="http://www.serif.com/" style="fill-rule:evenodd;clip-rule:evenodd;stroke-linejoin:round;stroke-miterlimit:2;">
    <g transform="matrix(1,0,0,1,-1787.38,-652.971)">
        <path d="M1872.75,652.971L1825.81,699.913L1825.81,669.676L1821.01,669.676L1821.01,699.913L1799.63,678.531L1796.23,681.924L1817.62,703.306L1787.38,703.306L1787.38,708.103L1817.62,708.103L1796.23,729.488L1799.63,732.881L1821.01,711.496L1821.01,741.736L1825.81,741.736L1825.81,711.496L1847.19,732.881L1850.58,729.488L1829.2,708.103L1859.44,708.103L1859.44,703.306L1829.2,703.306L1859.97,672.537L1883.75,696.317L1887.14,692.925L1863.36,669.144L1872.75,659.757L1896.53,683.541L1899.92,680.148L1872.75,652.971Z" style="fill:rgb(255,99,92);fill-rule:nonzero;"/>
    </g>
</svg>
