<?xml version="1.0" encoding="UTF-8" standalone="no"?>
<!DOCTYPE svg PUBLIC "-//W3C//DTD SVG 1.1//EN" "http://www.w3.org/Graphics/SVG/1.1/DTD/svg11.dtd">
<svg width="100%" height="100%" viewBox="0 0 485 341" version="1.1" xmlns="http://www.w3.org/2000/svg" xmlns:xlink="http://www.w3.org/1999/xlink" xml:space="preserve" xmlns:serif="http://www.serif.com/" style="fill-rule:evenodd;clip-rule:evenodd;stroke-linejoin:round;stroke-miterlimit:2;">
    <g transform="matrix(1,0,0,1,32.51,52.4014)">
        <path d="M0,0C1.17,-0 2.34,-0.01 3.54,-0.01C6.76,-0.02 9.97,-0 13.19,0.02C16.66,0.04 20.14,0.04 23.62,0.03C29.64,0.03 35.65,0.04 41.67,0.07C50.37,0.11 59.07,0.13 67.76,0.13C81.88,0.14 95.99,0.18 110.11,0.22C123.81,0.27 137.52,0.31 151.23,0.33L153.79,0.33C158.03,0.34 162.28,0.34 166.52,0.35C201.68,0.4 236.85,0.49 272.02,0.6C273.02,5.6 273.02,5.6 269.02,15.6C179.59,15.93 90.16,16.26 -1.98,16.6C4.37,21.8 10.66,26.93 17.2,31.85C23.67,36.75 30,41.79 36.27,46.93C41.37,51.1 46.56,55.14 51.79,59.13C55.29,61.8 58.75,64.51 62.2,67.23C62.8,67.69 63.39,68.16 64,68.64C67.29,71.23 70.57,73.85 73.83,76.48C78.23,80.01 82.71,83.43 87.2,86.85C93.42,91.58 99.55,96.39 105.63,101.29C110.62,105.3 115.67,109.21 120.75,113.09C124.83,116.22 128.87,119.4 132.91,122.58C136.83,125.68 140.77,128.75 144.72,131.82C147.6,134.05 150.47,136.3 153.34,138.54C154.84,139.7 156.34,140.86 157.84,142.02C161.83,145.11 165.79,148.22 169.71,151.4C171.21,152.59 172.71,153.78 174.2,154.98C174.89,155.54 175.57,156.11 176.27,156.69C179.45,159.2 181.5,160.5 185.55,161.27C190.15,160.38 192.75,158.4 196.33,155.48C197.01,154.94 197.7,154.41 198.4,153.85C199.86,152.71 201.32,151.55 202.77,150.39C205.02,148.6 207.29,146.83 209.57,145.07C216.98,139.35 224.34,133.57 231.69,127.78C234.89,125.26 238.1,122.76 241.32,120.27C242.84,119.09 244.37,117.91 245.89,116.73C246.65,116.14 247.41,115.55 248.19,114.94C253.28,110.99 258.29,106.94 263.27,102.85C270.28,97.09 277.55,91.77 285.02,86.6C288.46,88.05 290.38,89.88 292.77,92.73C293.38,93.45 293.99,94.18 294.63,94.92C295.08,95.48 295.54,96.03 296.02,96.6C293.13,100.51 290.09,103.27 286.2,106.16C285.03,107.04 283.87,107.92 282.7,108.8C282.09,109.26 281.49,109.72 280.86,110.19C277.79,112.54 274.78,114.98 271.77,117.41C265.68,122.31 259.5,127.08 253.28,131.82C248.28,135.62 243.33,139.48 238.39,143.37C232.86,147.74 227.29,152.06 221.71,156.39C218.13,159.17 214.55,161.96 211,164.8C210.38,165.29 209.76,165.79 209.12,166.3C207.97,167.21 206.83,168.13 205.69,169.05C198.42,174.84 192.09,178.09 182.72,177.93C173.99,176.87 167.56,170.82 161.15,165.28C158.05,162.6 154.84,160.08 151.58,157.6C151.04,157.19 150.5,156.78 149.95,156.35C148.3,155.1 146.66,153.85 145.02,152.6C137.85,147.14 130.77,141.61 123.82,135.87C120.28,133 116.67,130.23 113.05,127.46C109.12,124.46 105.22,121.42 101.33,118.35C95.91,114.08 90.47,109.84 85.02,105.6C64.17,89.4 64.17,89.4 56.45,83.04C52.06,79.42 47.58,75.93 43.06,72.47C37.26,68.03 31.52,63.51 25.78,58.99C22.86,56.69 19.94,54.4 17.02,52.1C15.85,51.19 14.69,50.28 13.53,49.36C11.15,47.49 8.76,45.62 6.38,43.75C-13.18,28.41 -13.18,28.41 -14.98,26.6L-14.98,258.6C23.18,220.12 23.18,220.12 61.3,181.59C68.7,174.16 68.7,174.16 72.16,170.69C74.58,168.27 76.99,165.83 79.39,163.38C82.46,160.26 85.54,157.16 88.64,154.08C89.77,152.94 90.9,151.8 92.02,150.65C101.44,140.97 101.44,140.97 106.59,140.83C110.02,141.6 110.02,141.6 112.52,143.16C114.02,145.6 114.02,145.6 114.02,152.6C75.08,191.54 36.14,230.48 -3.98,270.6L375.02,270.6C337.07,232.65 299.12,194.7 260.02,155.6C257.54,151.88 257.55,150 258.02,145.6C259.58,143.16 259.58,143.16 262.02,141.6C266.1,141.14 268.24,141.08 271.69,143.41C272.54,144.27 273.39,145.12 274.26,146.01C274.74,146.48 275.22,146.95 275.71,147.44C277.31,149.03 278.89,150.64 280.46,152.25C281.6,153.39 282.75,154.54 283.89,155.68C286.99,158.78 290.07,161.9 293.15,165.03C296.37,168.29 299.61,171.53 302.85,174.78C308.97,180.93 315.08,187.09 321.18,193.27C329.43,201.61 337.71,209.92 345.98,218.23C359.02,231.33 372.01,244.47 385.02,257.6C385.35,215.36 385.68,173.12 386.02,129.6C397.02,126.6 397.02,126.6 402.02,126.6C402.11,144.42 402.18,162.24 402.22,180.06C402.24,188.34 402.27,196.61 402.32,204.89C402.36,212.1 402.38,219.32 402.39,226.53C402.4,230.35 402.41,234.17 402.44,237.99C402.47,241.59 402.47,245.19 402.47,248.79C402.47,250.72 402.49,252.66 402.51,254.6C402.46,264.97 400.21,273.25 393.01,280.91C386.5,286.43 378.7,287.72 370.4,287.73C369.74,287.73 369.09,287.74 368.41,287.74L361.82,287.74C360.23,287.74 358.64,287.75 357.05,287.75C352.68,287.76 348.31,287.76 343.93,287.76C339.22,287.76 334.5,287.77 329.79,287.78C319.48,287.79 309.17,287.8 298.86,287.8C292.42,287.8 285.99,287.81 279.55,287.81C261.73,287.83 243.91,287.84 226.09,287.84L208.73,287.84C190.11,287.85 171.49,287.86 152.86,287.89C133.74,287.91 114.62,287.92 95.51,287.92C84.77,287.93 74.04,287.93 63.3,287.95C54.16,287.96 45.02,287.97 35.88,287.96C31.21,287.96 26.55,287.96 21.89,287.97C17.62,287.99 13.35,287.98 9.08,287.97C7.53,287.97 5.99,287.97 4.45,287.98C-6.61,288.04 -15.77,287.55 -24.19,279.64C-29.12,274.04 -32.1,267.81 -32.12,260.32C-32.12,259.47 -32.13,258.61 -32.13,257.74L-32.13,254.91C-32.14,253.92 -32.14,252.92 -32.14,251.9C-32.15,248.56 -32.16,245.22 -32.16,241.88C-32.17,239.48 -32.17,237.09 -32.18,234.7C-32.2,227.52 -32.21,220.34 -32.22,213.15C-32.22,209.77 -32.23,206.38 -32.23,203C-32.25,191.75 -32.27,180.5 -32.27,169.25C-32.28,166.33 -32.28,163.41 -32.28,160.49L-32.28,158.29C-32.29,146.54 -32.31,134.79 -32.35,123.04C-32.38,110.97 -32.4,98.9 -32.4,86.84C-32.4,80.06 -32.41,73.29 -32.44,66.51C-32.46,60.14 -32.47,53.77 -32.46,47.39C-32.45,45.06 -32.46,42.72 -32.47,40.38C-32.49,37.19 -32.49,33.99 -32.47,30.8C-32.48,29.88 -32.49,28.95 -32.51,28C-32.42,19.81 -29.48,13.31 -23.87,7.33C-16.87,0.92 -9.13,-0.12 0,0Z" style="fill:rgb(72,75,78);fill-rule:nonzero;"/>
    </g>
    <g transform="matrix(1,0,0,1,429.526,6.0027)">
        <path d="M0,0C1.02,0.43 1.02,0.43 2.06,0.86C23.79,10.27 40.02,26.27 49.38,48.12C49.95,49.74 50.49,51.36 51,53C51.44,54.38 51.44,54.38 51.9,55.8C57.64,76.54 53.97,100.13 44,119C32,139.16 13.27,153.02 -9.08,159.61C-30.92,165.1 -53.96,160.38 -73,149C-76.16,146.82 -79.1,144.5 -82,142C-82.96,141.24 -83.92,140.47 -84.91,139.68C-99.94,127.13 -108.12,107.9 -111.75,89.12C-113.79,65.99 -108.71,44.09 -93.94,25.66C-87.48,17.96 -80.2,11.77 -72,6C-71.24,5.47 -70.49,4.94 -69.71,4.39C-62.58,-0.06 -54.04,-1.85 -46,-4C-45.37,-4.18 -44.74,-4.36 -44.09,-4.55C-29.78,-7.65 -13.4,-5.63 0,0Z" style="fill:rgb(255,48,63);fill-rule:nonzero;"/>
    </g>
    <g transform="matrix(1,0,0,1,431.526,42.0027)">
        <path d="M0,0C7.35,5.51 13.1,13.94 15,23C16.09,36.07 15.79,48.76 7.42,59.5C2.26,64.95 -3.49,68.05 -11,68.31C-15.12,68.21 -17.84,67.86 -21,65C-22.31,62.31 -22.31,62.31 -23,60C-23.87,60.6 -24.73,61.2 -25.62,61.81C-32.21,66.11 -37.07,67.94 -45,67C-50.51,65.06 -53.5,62.02 -56.08,56.82C-58.54,49.28 -58.27,39.52 -54.81,32.38C-53.92,30.89 -52.98,29.43 -52,28C-51.63,27.42 -51.25,26.84 -50.87,26.24C-47.61,21.73 -43.19,18.81 -38,17C-31.87,16.24 -26.66,16.43 -21,19C-20.5,18.5 -20.5,18.5 -20,18C-18.52,17.9 -17.04,17.87 -15.56,17.88C-14.36,17.87 -14.36,17.87 -13.13,17.87C-11,18 -11,18 -9,19C-9.09,19.63 -9.18,20.27 -9.28,20.92C-13.12,38.69 -13.12,38.69 -11,56C-5.84,55.73 -5.84,55.73 -1.75,52.81C2.27,46.35 3.56,41.79 3.5,34.25C3.49,32.91 3.49,32.91 3.48,31.55C3.27,23.69 1.73,18.13 -3.61,12.22C-11.73,4.62 -22.04,1.42 -33.01,1.7C-44.51,2.87 -53.24,7.45 -60.84,16.1C-68.63,26.61 -69.38,40.37 -68,53C-66.54,59.04 -63.7,64.02 -60,69C-59.44,69.8 -58.88,70.61 -58.31,71.43C-55.59,74.46 -52.68,76.05 -49.06,77.75C-48.15,78.2 -48.15,78.2 -47.22,78.67C-37.23,83.52 -25.32,83.39 -14.8,80.12C-7.25,77.1 -0.23,73.23 6,68C8.73,68.97 9.78,69.58 11.12,72.19C10.96,75.96 9.68,77.45 7.13,80.16C-5.4,90.95 -19.07,93.33 -35,93C-35.95,93.01 -36.89,93.01 -37.87,93.02C-48.35,92.69 -58.73,87.12 -66.26,79.95C-71.01,74.63 -75.25,68.6 -78,62C-78.28,61.36 -78.55,60.71 -78.84,60.05C-83.86,46.43 -81.57,31.52 -75.94,18.55C-70.67,8.06 -62.28,0.43 -52,-5C-51.18,-5.43 -50.37,-5.87 -49.52,-6.32C-33.17,-13.58 -14.62,-8.64 0,0Z" style="fill:rgb(253,249,245);fill-rule:nonzero;"/>
    </g>
    <g transform="matrix(1,0,0,1,404.526,69.0027)">
        <path d="M0,0C2.5,1.44 2.5,1.44 4,4C5.3,11.48 2.81,18.21 -0.38,24.88C-3.28,28.67 -5.87,29.82 -10.56,30.56C-14,30 -14,30 -16.44,27.75C-19.08,22.9 -18.81,17.32 -18,12C-14.66,3.53 -9.18,-1.17 0,0Z" style="fill:rgb(255,48,63);fill-rule:nonzero;"/>
    </g>
</svg>
